<svg t="1688403367458" class="icon" viewBox="0 0 1024 1024" version="1.1" xmlns="http://www.w3.org/2000/svg" p-id="5836" width="200" height="200"><path d="M160.768 788.6848c-2.304-2.56-4.608-5.12-6.656-7.936 0 0 0.256 0 0.256-0.256 2.048 2.816 4.096 5.632 6.4 8.192zM363.52 953.0368c-17.152-5.12-33.792-11.264-50.176-18.432 16.384 6.912 33.024 13.056 50.176 18.432zM134.144 227.7888c-1.536 1.536-3.072 3.328-4.352 5.12l3.84-5.376 0.512 0.256zM155.648 244.4288c-0.512-0.256-1.024-0.768-1.536-1.024v-0.256h0.256l1.28 1.28zM838.656 243.1488v0.256c-0.512 0.256-1.024 0.768-1.536 1.024l1.28-1.28h0.256zM862.976 232.9088c-1.28-1.792-2.816-3.584-4.352-5.12l0.512-0.256 3.84 5.376z" fill="#1296db" p-id="5837"></path><path d="M873.984 248.2688c-2.304-3.328-4.608-6.912-7.168-10.24-1.28-1.536-2.56-3.328-3.84-5.12-1.28-1.792-2.816-3.584-4.352-5.12-83.968-107.52-212.992-172.544-349.184-176.128-4.352-0.512-8.704-0.512-13.056-0.512-4.352 0-8.704 0-13.056 0.512-136.192 3.584-265.216 68.608-349.184 176.128-1.536 1.536-3.072 3.328-4.352 5.12s-2.56 3.584-3.84 5.12c-2.56 3.328-4.864 6.912-7.168 10.24-54.528 77.312-83.2 168.192-83.2 263.68 0 98.048 30.72 188.928 83.2 263.68 2.304 3.584 4.864 6.912 7.168 10.24 14.08 19.2 29.696 37.12 46.848 53.504 4.352 4.352 8.704 8.704 13.312 12.8 0.768 1.024 1.792 1.792 2.816 2.56 4.864 4.352 9.728 8.448 14.592 12.544 13.312 11.264 27.392 21.504 42.24 30.976a505.2672 505.2672 0 0 0 43.264 24.832c7.936 4.096 16.128 7.936 24.32 11.52 16.384 6.912 33.024 13.056 50.176 18.432 8.448 2.56 17.152 4.864 25.856 6.912 7.424 1.792 15.104 3.584 22.784 4.864 2.048 0.512 4.352 0.768 6.656 1.28 7.68 1.28 15.616 2.56 23.552 3.328 8.704 1.024 17.408 2.048 26.112 2.56h1.024c8.96 0.512 17.92 0.768 26.88 0.768 44.288 0 88.32-6.144 130.56-18.688 6.656-2.048 10.752-9.216 8.704-15.872a12.7232 12.7232 0 0 0-15.872-8.704c-7.68 2.304-15.616 4.352-23.552 6.144 4.864-3.84 9.728-8.192 14.592-12.544 5.376-4.608 5.632-12.8 0.768-17.92a12.6976 12.6976 0 0 0-18.176-0.768c-26.624 24.832-54.784 38.912-84.224 41.984v-267.776c33.024 0.512 65.792 3.584 97.536 8.704a12.7488 12.7488 0 1 0 4.352-25.088c-33.28-5.632-67.328-8.704-101.888-9.216v-128.256h212.992c0 22.016-1.28 43.776-3.328 65.024-0.768 7.168 4.608 13.312 11.52 14.08 6.912 0.768 13.312-4.608 14.08-11.52 2.048-22.016 3.072-44.8 3.328-67.584h183.552c-1.024 37.632-6.912 74.752-17.408 110.592-2.048 6.656 1.792 13.824 8.704 15.872 6.656 2.048 13.824-1.792 15.872-8.704 12.288-42.24 18.688-86.016 18.688-130.56 0-95.488-28.672-186.368-83.2-263.68z m-719.872-5.12h0.256c61.44-78.336 147.968-132.608 243.456-154.88-55.04 42.752-99.84 120.32-126.464 217.6-6.4-2.304-12.544-4.864-18.688-7.424-4.096-1.536-8.192-3.328-12.032-5.376-13.312-5.632-26.368-12.032-38.656-19.2-3.84-2.048-7.68-4.352-11.52-6.656-12.032-6.912-23.808-14.592-34.816-22.784-0.512-0.256-1.024-0.768-1.536-1.024v-0.256z m-15.104 20.736c6.656 4.864 13.568 9.728 20.736 14.08 2.816 2.048 5.376 3.584 8.192 5.376 7.168 4.608 14.336 8.96 22.016 13.056a534.784 534.784 0 0 0 75.008 34.304c-12.032 51.968-19.2 108.8-19.968 168.448H61.44a429.568 429.568 0 0 1 77.568-235.264zM61.44 524.7488h183.552c0.768 59.648 7.936 116.48 19.968 168.448-46.336 17.152-88.832 39.68-125.696 66.816a431.872 431.872 0 0 1-77.824-235.264z m313.088 404.992c-15.872-4.608-31.232-9.984-46.08-16.384-0.512-0.256-0.768-0.512-1.28-0.512a221.952 221.952 0 0 1-20.992-9.728 250.368 250.368 0 0 1-21.76-11.264c-6.912-3.584-13.568-7.68-20.224-12.032-0.512-0.256-1.024-0.768-1.536-1.024-6.656-4.096-13.056-8.448-19.456-13.312-4.608-3.072-8.96-6.144-13.056-9.728l-9.984-7.68c-10.752-8.96-21.248-18.176-31.232-28.416-9.984-9.728-19.456-19.968-28.16-30.976-2.304-2.56-4.608-5.12-6.656-7.936 0 0 0.256 0 0.256-0.256 34.048-25.344 73.728-46.336 116.992-62.464 26.624 97.28 71.424 174.848 126.464 217.6l0.256 0.256c-7.936-1.792-15.872-3.84-23.552-6.144z m109.056 16.64c-82.432-8.96-153.088-102.912-188.416-236.8 58.368-19.2 122.368-29.952 188.416-30.976v267.776z m0-293.376c-67.84 1.024-134.144 12.288-194.56 31.744-11.264-49.152-17.664-103.168-18.432-160h212.992v128.256z m0-153.856h-212.992c0.768-56.576 7.168-110.592 18.432-160 15.616 5.12 31.744 9.728 48.128 13.312 3.328 0.768 6.4 1.792 9.728 2.304 5.12 1.28 10.496 2.304 15.616 3.328 7.68 1.536 15.616 2.816 23.296 4.096 7.168 1.28 14.08 2.304 21.248 3.072 2.048 0.512 3.84 0.768 5.888 0.768 5.12 0.512 9.984 1.28 15.104 1.536 8.192 1.024 16.384 1.536 24.576 2.048 2.304 0.256 4.352 0.512 6.4 0.256 8.192 0.768 16.384 1.024 24.576 1.024v128.256z m0-153.856c-3.84 0-7.68 0-11.52-0.256-8.192 0-16.128-0.512-24.064-1.28-14.848-1.024-29.44-2.56-44.032-4.608-7.168-1.024-14.592-2.048-21.76-3.328s-14.336-2.56-21.248-4.096c-9.984-2.048-19.456-4.096-29.184-6.656-12.288-3.328-24.576-6.912-36.608-10.752 35.584-133.888 105.984-227.84 188.416-236.8v267.776z m354.816-102.144h0.256v0.256c-0.512 0.256-1.024 0.768-1.536 1.024-9.472 6.912-19.2 13.568-29.184 19.456-3.072 2.048-6.4 4.096-9.472 5.632-6.4 3.84-12.8 7.424-19.456 10.752-7.936 4.352-16.384 8.448-24.832 12.032-2.56 1.28-5.12 2.56-7.936 3.584-7.936 3.584-16.384 6.912-24.832 9.984-26.624-97.28-71.424-174.848-126.464-217.6 95.488 22.272 182.016 76.544 243.456 154.88z m-329.216-165.632c82.432 8.96 152.832 102.912 188.416 236.8-2.56 1.024-5.376 1.792-8.192 2.56-4.608 1.536-9.216 2.816-13.824 4.096-5.632 1.792-11.264 3.328-16.896 4.608-11.776 3.072-23.552 5.632-35.584 7.936-4.352 1.024-8.448 1.792-12.8 2.304-5.12 1.024-10.496 1.792-15.616 2.56-5.376 0.768-10.752 1.536-16.128 2.048-3.584 0.512-7.424 1.024-11.264 1.28-7.424 1.024-14.848 1.536-22.528 2.048-7.936 0.768-15.872 1.28-24.064 1.28-3.84 0.256-7.68 0.256-11.52 0.256V77.5168z m0 421.632v-128.256c10.24-0.256 20.736-0.512 30.976-1.28 2.816 0 5.888-0.256 8.96-0.512 7.68-0.512 15.36-1.28 23.04-2.048 3.84-0.512 7.68-0.768 11.52-1.536 8.96-1.024 17.92-2.56 26.624-3.84 3.328-0.512 6.912-1.024 10.496-1.792 11.008-2.048 22.016-4.352 32.768-6.912 17.152-3.84 33.792-8.448 50.176-13.824 11.264 49.408 17.664 103.424 18.432 160h-212.992z m238.592 0c-0.768-59.648-7.936-116.48-19.968-168.448 1.024-0.256 2.048-0.512 2.816-1.28 5.12-1.792 9.984-3.584 14.848-5.632s9.728-4.096 14.336-6.144c9.216-4.096 18.432-8.448 27.392-13.056 12.544-6.144 24.32-12.8 35.84-19.968 3.84-2.56 7.68-4.864 11.264-7.424 4.096-2.56 8.192-5.376 12.288-8.192 2.56-1.536 5.12-3.328 7.424-5.12a431.36 431.36 0 0 1 77.312 235.264h-183.552z" fill="#1296db" p-id="5838"></path><path d="M866.816 238.0288c2.56 3.328 4.864 6.912 7.168 10.24l0.256-0.256-7.424-9.984z m-748.288 9.984l0.256 0.256c2.304-3.328 4.608-6.912 7.168-10.24l-7.424 9.984z" fill="#1296db" p-id="5839"></path><path d="M125.952 785.8688l-7.424-9.984 0.256-0.256c2.304 3.584 4.864 6.912 7.168 10.24zM374.528 929.7408c-15.872-4.608-31.232-9.984-46.08-16.384 15.104 6.144 30.464 11.776 46.08 16.384zM398.08 935.8848c-7.936-1.792-15.872-3.84-23.552-6.144 7.68 2.048 15.36 4.096 23.296 5.888l0.256 0.256z" fill="#1296db" p-id="5840"></path><path d="M676.1216 834.7392a38.144 38.144 0 1 0 38.144 38.144 37.376 37.376 0 0 0-38.144-38.144zM883.9168 834.7392a38.144 38.144 0 1 0 38.144 38.144 37.6832 37.6832 0 0 0-38.144-38.144z" fill="#1296db" p-id="5841"></path><path d="M962.4064 770.5088a45.5936 45.5936 0 0 0-32.64-13.5168h-37.6832c-20.8896 0-53.0432-69.5808-83.2768-69.5808h-109.9008a43.008 43.008 0 0 0-32.1536 16.0768 485.0944 485.0944 0 0 0-38.144 40.32c-9.6256 9.4208-19.968 18.0992-30.9504 25.9072a17.7152 17.7152 0 0 0-5.9904 12.7232v73.9072c0.256 8.32 7.0144 15.0016 15.36 15.104h15.5904a53.76 53.76 0 1 1 107.264 0h99.8144a54.2464 54.2464 0 0 1 52.7872-53.2736 53.5808 53.5808 0 0 1 53.504 53.76h24.0128a15.616 15.616 0 0 0 15.5904-15.5904v-53.0432a45.5168 45.5168 0 0 0-13.184-32.7936z m-216.704-20.736a7.68 7.68 0 0 1-7.68 7.68h-80.64c-3.3536 0-5.5296-2.6368-3.3536-5.9904l29.7472-41.984a16.7936 16.7936 0 0 1 12.2368-5.9904h41.984a7.7312 7.7312 0 0 1 7.68 8.1408v38.144z m97.8944 7.68h-76.3136a7.68 7.68 0 0 1-7.68-7.68v-37.6832a7.68 7.68 0 0 1 8.1408-8.6272h38.144a16.8192 16.8192 0 0 1 12.2368 6.9632l28.8 41.0368c2.2016 3.3536 0.9984 5.9904-3.328 5.9904z" fill="#1296db" p-id="5842"></path></svg>