<svg t="1688396258255" class="icon" viewBox="0 0 1260 1024" version="1.1" xmlns="http://www.w3.org/2000/svg" p-id="4353" width="200" height="200"><path d="M449.079243 602.148919a67.112611 67.112611 0 0 0 5.215608-32.559204l-29.222748-350.86473A42.721971 42.721971 0 0 0 383.500634 180.298221c-21.322635 0-39.769016 17.219178-41.571469 38.426764l-29.222748 350.90308A67.112611 67.112611 0 0 0 317.922026 602.148919H153.553654A153.400254 153.400254 0 0 0 0 755.625873v114.89679A153.515304 153.515304 0 0 0 153.553654 1023.999616h920.094722A153.400254 153.400254 0 0 0 1227.20203 870.522663v-114.89679A153.515304 153.515304 0 0 0 1073.648376 602.148919H449.079243zM76.700127 755.625873v114.89679C76.700127 912.899483 111.100134 947.29949 153.553654 947.29949h920.094722A76.700127 76.700127 0 0 0 1150.501903 870.522663v-114.89679A76.815177 76.815177 0 0 0 1073.648376 678.849046H153.553654A76.700127 76.700127 0 0 0 76.700127 755.625873zM210.925349 755.549173c31.753853 0 57.525095 25.541142 57.525095 57.525095 0 31.753853-25.541142 57.525095-57.525095 57.525095-31.753853 0-57.525095-25.541142-57.525095-57.525095 0-31.753853 25.541142-57.525095 57.525095-57.525095zM958.751586 813.074268c0-31.753853 25.541142-57.525095 57.525095-57.525095 31.753853 0 57.525095 25.541142 57.525095 57.525095 0 31.753853-25.541142 57.525095-57.525095 57.525095-31.753853 0-57.525095-25.541142-57.525095-57.525095z m-613.601015 0c0-10.584618 8.206914-19.175032 19.366782-19.175032h37.966563c10.699668 0 19.366782 8.897215 19.366782 19.175032 0 10.584618-8.206914 19.175032-19.366782 19.175031h-37.966563A19.481832 19.481832 0 0 1 345.150571 813.074268z m153.400254 0c0-10.584618 8.206914-19.175032 19.366782-19.175032h37.966562c10.699668 0 19.366782 8.897215 19.366782 19.175032 0 10.584618-8.206914 19.175032-19.366782 19.175031h-37.966562a19.481832 19.481832 0 0 1-19.366782-19.175031z m153.400253 0c0-10.584618 8.206914-19.175032 19.366782-19.175032h37.966563c10.699668 0 19.366782 8.897215 19.366782 19.175032 0 10.584618-8.206914 19.175032-19.366782 19.175031h-37.966563a19.481832 19.481832 0 0 1-19.366782-19.175031z m153.400254 0c0-10.584618 8.206914-19.175032 19.366782-19.175032h37.966563c10.699668 0 19.366782 8.897215 19.366782 19.175032 0 10.584618-8.206914 19.175032-19.366782 19.175031h-37.966563a19.481832 19.481832 0 0 1-19.366782-19.175031zM230.867382 387.465264c5.177259 7.209812 10.853068 14.112823 17.027428 20.709034 0 0 19.903683 12.502121 20.555634-21.821186 0.345151-17.449279-20.555634-45.866676-20.555634-45.866676a169.39223 169.39223 0 0 1-16.107027-52.232786h2.646155A172.920436 172.920436 0 0 1 230.215431 256.998348c0.460201-10.507917 1.879153-20.977485 4.218507-31.255302h-2.684505c2.531104-18.02453 7.938463-35.742259 16.145377-52.232786 0 0 20.900785-28.379047 20.555634-45.866676-0.651951-34.323307-20.555634-21.821186-20.555634-21.821186-6.17436 6.596211-11.88852 13.499222-17.027428 20.709034A211.7307 211.7307 0 0 0 191.865367 256.998348 211.7307 211.7307 0 0 0 230.867382 387.465264zM76.700127 256.998348A317.461825 317.461825 0 0 1 166.554325 29.122271S191.750317 15.661399 191.750317 54.931864c0 5.253959-25.195992 34.400007-25.195992 34.400007a277.807859 277.807859 0 0 0-50.123532 133.995121h1.342252c-1.534003 11.159868-2.454404 22.434787-2.684505 33.671356 0.2301 11.236569 1.150502 22.511487 2.684505 33.671356h-1.342252a277.807859 277.807859 0 0 0 50.123532 133.995121s25.195992 29.146048 25.195992 34.400007c0 39.270465-25.195992 25.809593-25.195992 25.809593A317.461825 317.461825 0 0 1 76.738477 256.998348z m459.43376 130.466916a202.296585 202.296585 0 0 1-17.065779 20.709034s-19.865333 12.502121-20.555634-21.821186c-0.345151-17.449279 20.555634-45.866676 20.555634-45.866676 8.206914-16.490527 13.614273-34.169907 16.107027-52.232786h-2.646154c2.377704-10.277817 3.758306-20.747384 4.218507-31.255302a172.920436 172.920436 0 0 0-4.218507-31.255302h2.684504a169.39223 169.39223 0 0 0-16.145377-52.232786s-20.900785-28.379047-20.555634-45.866676c0.690301-34.323307 20.555634-21.821186 20.555634-21.821186 6.17436 6.596211 11.88852 13.499222 17.027429 20.709034A211.7307 211.7307 0 0 1 575.135901 256.998348a211.7307 211.7307 0 0 1-39.002014 130.466916zM690.224441 256.998348A317.461825 317.461825 0 0 0 600.446943 29.122271S575.250951 15.661399 575.250951 54.931864c0 5.253959 25.195992 34.400007 25.195992 34.400007a277.807859 277.807859 0 0 1 50.123533 133.995121h-1.342252c1.534003 11.159868 2.454404 22.434787 2.684504 33.671356-0.2301 11.236569-1.150502 22.511487-2.684504 33.671356h1.342252a277.807859 277.807859 0 0 1-50.123533 133.995121s-25.195992 29.146048-25.195992 34.400007c0 39.270465 25.195992 25.809593 25.195992 25.809593A317.461825 317.461825 0 0 0 690.262792 256.998348zM210.925349 832.249299a19.175032 19.175032 0 1 0 0-38.350063 19.175032 19.175032 0 0 0 0 38.350063z m805.351332 0a19.175032 19.175032 0 1 0 0-38.350063 19.175032 19.175032 0 0 0 0 38.350063z" fill="#13227a" p-id="4354"></path></svg>